<svg width="16" height="16" viewBox="0 0 16 16" fill="none" xmlns="http://www.w3.org/2000/svg">
<path d="M8 1.33325C7.12452 1.33325 6.25761 1.50569 5.44878 1.84072C4.63994 2.17575 3.90501 2.66682 3.28595 3.28587C2.03571 4.53612 1.33333 6.23181 1.33333 7.99992C1.33333 10.9466 3.24667 13.4466 5.89333 14.3333C6.22667 14.3866 6.33333 14.1799 6.33333 13.9999V12.8733C4.48667 13.2733 4.09333 11.9799 4.09333 11.9799C3.78667 11.2066 3.35333 10.9999 3.35333 10.9999C2.74667 10.5866 3.4 10.5999 3.4 10.5999C4.06667 10.6466 4.42 11.2866 4.42 11.2866C5 12.2999 5.98 11.9999 6.36 11.8399C6.42 11.4066 6.59333 11.1133 6.78 10.9466C5.3 10.7799 3.74667 10.2066 3.74667 7.66659C3.74667 6.92659 4 6.33325 4.43333 5.85992C4.36667 5.69325 4.13333 4.99992 4.5 4.09992C4.5 4.09992 5.06 3.91992 6.33333 4.77992C6.86 4.63325 7.43333 4.55992 8 4.55992C8.56667 4.55992 9.14 4.63325 9.66667 4.77992C10.94 3.91992 11.5 4.09992 11.5 4.09992C11.8667 4.99992 11.6333 5.69325 11.5667 5.85992C12 6.33325 12.2533 6.92659 12.2533 7.66659C12.2533 10.2133 10.6933 10.7733 9.20667 10.9399C9.44667 11.1466 9.66667 11.5533 9.66667 12.1733V13.9999C9.66667 14.1799 9.77333 14.3933 10.1133 14.3333C12.76 13.4399 14.6667 10.9466 14.6667 7.99992C14.6667 7.12444 14.4942 6.25753 14.1592 5.4487C13.8242 4.63986 13.3331 3.90493 12.714 3.28587C12.095 2.66682 11.3601 2.17575 10.5512 1.84072C9.74238 1.50569 8.87548 1.33325 8 1.33325Z" fill="white"/>
</svg>
