<svg width="16" height="16" viewBox="0 0 16 16" fill="none" xmlns="http://www.w3.org/2000/svg">
<path d="M3.5 7.5H13.5C13.6326 7.5 13.7598 7.55268 13.8536 7.64645C13.9473 7.74021 14 7.86739 14 8C14 8.13261 13.9473 8.25979 13.8536 8.35355C13.7598 8.44732 13.6326 8.5 13.5 8.5H3.5C3.36739 8.5 3.24021 8.44732 3.14645 8.35355C3.05268 8.25979 3 8.13261 3 8C3 7.86739 3.05268 7.74021 3.14645 7.64645C3.24021 7.55268 3.36739 7.5 3.5 7.5Z" fill="white"/>
<path d="M3.707 7.9999L7.854 12.1459C7.94789 12.2398 8.00063 12.3671 8.00063 12.4999C8.00063 12.6327 7.94789 12.76 7.854 12.8539C7.76011 12.9478 7.63277 13.0005 7.5 13.0005C7.36722 13.0005 7.23989 12.9478 7.146 12.8539L2.646 8.3539C2.59944 8.30745 2.56249 8.25228 2.53729 8.19153C2.51208 8.13079 2.49911 8.06567 2.49911 7.9999C2.49911 7.93413 2.51208 7.86901 2.53729 7.80827C2.56249 7.74752 2.59944 7.69234 2.646 7.6459L7.146 3.1459C7.23989 3.05201 7.36722 2.99927 7.5 2.99927C7.63277 2.99927 7.76011 3.05201 7.854 3.1459C7.94789 3.23979 8.00063 3.36712 8.00063 3.4999C8.00063 3.63267 7.94789 3.76001 7.854 3.8539L3.707 7.9999Z" fill="white"/>
</svg>
